<svg viewBox="0 0 846.66 846.66" xml:space="preserve" xmlns="http://www.w3.org/2000/svg" shape-rendering="geometricPrecision" text-rendering="geometricPrecision" image-rendering="optimizeQuality" fill-rule="evenodd" clip-rule="evenodd"><path d="M310.21 508.53c27.16 0 27.16 41.3 0 41.3h-61.08c-59 0-107.19-48.19-107.19-107.18 0-59 48.19-107.19 107.19-107.19h140.95c59 0 107.19 48.19 107.19 107.19 0 27.16-41.31 27.16-41.31 0 0-36.19-29.69-65.88-65.88-65.88H249.13c-36.19 0-65.88 29.69-65.88 65.88s29.69 65.88 65.88 65.88h61.08zM147.47 236.74c-27.17 0-27.17-41.3 0-41.3h355.67c27.16 0 27.16 41.3 0 41.3H147.47zM115.26 72.21h616.13c57.61 0 104.67 47.06 104.67 104.67v492.9c0 57.61-47.06 104.67-104.67 104.67H115.26c-57.6 0-104.66-47.06-104.66-104.67v-492.9c0-57.61 47.06-104.67 104.66-104.67zm616.13 41.31H115.26c-34.8 0-63.36 28.56-63.36 63.36v492.9c0 34.8 28.56 63.36 63.36 63.36h616.13c34.81 0 63.37-28.55 63.37-63.36v-492.9c0-34.81-28.57-63.36-63.37-63.36zM536.46 376.77c-27.17 0-27.17-41.31 0-41.31h61.07c59 0 107.19 48.19 107.19 107.19 0 58.99-48.19 107.18-107.19 107.18H456.58c-58.99 0-107.19-48.19-107.19-107.18 0-27.17 41.31-27.17 41.31 0 0 36.18 29.69 65.88 65.88 65.88h140.95c36.19 0 65.88-29.69 65.88-65.88s-29.69-65.88-65.88-65.88h-61.07z" fill="#ffffff" fill-rule="nonzero" class="fill-000000"></path></svg>