<?xml version="1.0" ?><!DOCTYPE svg  PUBLIC '-//W3C//DTD SVG 1.1//EN'  'http://www.w3.org/Graphics/SVG/1.1/DTD/svg11.dtd'><svg height="8.4666mm" style="shape-rendering:geometricPrecision; text-rendering:geometricPrecision; image-rendering:optimizeQuality; fill-rule:evenodd; clip-rule:evenodd" version="1.1" viewBox="0 0 846.66 846.66" width="8.4666mm" xml:space="preserve" xmlns="http://www.w3.org/2000/svg" xmlns:xlink="http://www.w3.org/1999/xlink"><defs><style type="text/css">
   <![CDATA[
    .fil0 {fill:black;fill-rule:nonzero}
   ]]>
  </style></defs><g id="Layer_x0020_1"><path class="fil0" d="M310.21 508.53c27.16,0 27.16,41.3 0,41.3l-61.08 0c-59,0 -107.19,-48.19 -107.19,-107.18 0,-59 48.19,-107.19 107.19,-107.19l140.95 0c59,0 107.19,48.19 107.19,107.19 0,27.16 -41.31,27.16 -41.31,0 0,-36.19 -29.69,-65.88 -65.88,-65.88l-140.95 0c-36.19,0 -65.88,29.69 -65.88,65.88 0,36.19 29.69,65.88 65.88,65.88l61.08 0zm-162.74 -271.79c-27.17,0 -27.17,-41.3 0,-41.3l355.67 0c27.16,0 27.16,41.3 0,41.3l-355.67 0zm-32.21 -164.53l616.13 0c57.61,0 104.67,47.06 104.67,104.67l0 492.9c0,57.61 -47.06,104.67 -104.67,104.67l-616.13 0c-57.6,0 -104.66,-47.06 -104.66,-104.67l0 -492.9c0,-57.61 47.06,-104.67 104.66,-104.67zm616.13 41.31l-616.13 0c-34.8,0 -63.36,28.56 -63.36,63.36l0 492.9c0,34.8 28.56,63.36 63.36,63.36l616.13 0c34.81,0 63.37,-28.55 63.37,-63.36l0 -492.9c0,-34.81 -28.57,-63.36 -63.37,-63.36zm-194.93 263.25c-27.17,0 -27.17,-41.31 0,-41.31l61.07 0c59,0 107.19,48.19 107.19,107.19 0,58.99 -48.19,107.18 -107.19,107.18l-140.95 0c-58.99,0 -107.19,-48.19 -107.19,-107.18 0,-27.17 41.31,-27.17 41.31,0 0,36.18 29.69,65.88 65.88,65.88l140.95 0c36.19,0 65.88,-29.69 65.88,-65.88 0,-36.19 -29.69,-65.88 -65.88,-65.88l-61.07 0z"/></g></svg>